<?xml version="1.0" encoding="UTF-8"?>
<svg version="1.1" xmlns="http://www.w3.org/2000/svg" width="604" height="604">
<path d="M0 0 C14.38791899 -0.0705542 28.77581057 -0.12301231 43.16386795 -0.15543652 C49.84677673 -0.17080636 56.52955516 -0.19208952 63.21240234 -0.22631836 C69.6769092 -0.25921691 76.14130417 -0.27691655 82.60588837 -0.28463173 C85.05669665 -0.29012102 87.5074997 -0.30083792 89.95825958 -0.31719017 C137.54727175 -0.62172566 178.46375917 13.7409083 213 47 C213.64066406 47.58910156 214.28132812 48.17820313 214.94140625 48.78515625 C242.45313605 74.76491038 258.03604217 115.72678674 259.203125 153.015625 C259.80781662 193.78967099 247.45259982 234.77506604 219.03125 264.84765625 C217.17385774 266.81577766 215.46613064 268.84701733 213.75 270.9375 C200.30037217 286.22534576 181.53655875 297.92960202 163 306 C162.29359375 306.30776367 161.5871875 306.61552734 160.859375 306.93261719 C135.24824914 317.79691127 108.94739268 319.16175607 81.54296875 319.09765625 C79.18500295 319.09578811 76.82703676 319.09436608 74.46907043 319.09336853 C68.30263167 319.08957451 62.13621695 319.07977127 55.9697876 319.06866455 C49.66150233 319.05838301 43.35321313 319.05385654 37.04492188 319.04882812 C24.69660409 319.03814583 12.34830406 319.02110739 0 319 C1.92523104 305.04739491 4.07486575 291.14527597 6.40439034 277.25466347 C6.95813223 273.95099262 7.50830762 270.64674404 8.05760193 267.34233093 C9.61702141 257.9642894 11.18164988 248.58712288 12.75073242 239.21069336 C13.7179379 233.42942042 14.68035593 227.64736621 15.63996696 221.86482811 C16.00211329 219.68839647 16.36603658 217.51225961 16.73190498 215.33645058 C18.42385461 205.2728454 20.07769295 195.22055527 21.21923828 185.07739258 C21.29759194 184.3828085 21.37594561 183.68822443 21.45667362 182.97259235 C22.12589539 176.5945403 22.35096847 170.20380893 22.32226562 163.79296875 C22.3135616 160.87034977 22.32754477 157.94976838 22.36132812 155.02734375 C22.39770468 146.64031671 21.82252284 138.43350046 20.75537109 130.11523438 C20.62377185 129.07911451 20.4921726 128.04299465 20.3565855 126.97547722 C18.72442154 114.45824231 16.63904235 102.01792005 14.55078125 89.5703125 C14.12862007 87.0311542 13.70693232 84.49191715 13.28569031 81.9526062 C12.30109079 76.02304052 11.31252987 70.09415046 10.32167357 64.16562831 C8.43288554 52.86354556 6.55345947 41.5599047 4.67464256 30.25616074 C4.05813594 26.55200168 3.43920468 22.848254 2.81990051 19.14456177 C2.44539281 16.89732718 2.07093426 14.65008439 1.6965332 12.40283203 C1.52358231 11.37239273 1.35063141 10.34195343 1.17243958 9.2802887 C1.01690613 8.34459549 0.86137268 7.40890228 0.7011261 6.44485474 C0.56491002 5.62982042 0.42869394 4.81478611 0.28835011 3.97505379 C0 2 0 2 0 0 Z M96 95 C96.3403125 95.6084375 96.680625 96.216875 97.03125 96.84375 C112.41830367 124.67140025 122.33402199 152.00424441 114 184 C109.80121797 198.36031129 102.68527646 211.86035222 94 224 C112.47587939 225.17376175 129.71229917 218.59311904 143.5390625 206.46875 C156.16715621 193.8005671 163.751789 177.62658456 164.4375 159.6875 C163.90861068 140.6474843 155.57194333 123.93664911 141.875 110.875 C128.69381677 99.7251635 113.41065563 93.83280521 96 95 Z " fill="#D1A44D" transform="translate(82,67)"/>
<path d="M0 0 C4.63003233 3.86955256 9.02207622 7.88324479 13.26733398 12.16967773 C13.85047363 12.75427765 14.43361328 13.33887756 15.03442383 13.94119263 C16.28825378 15.1987997 17.5409283 16.45755963 18.7925396 17.7173748 C20.77977406 19.71749241 22.77021997 21.71436489 24.76148987 23.71046448 C29.70506048 28.66733277 34.64316182 33.62963801 39.5814209 38.59179688 C43.76211527 42.79230723 47.94490933 46.9907058 52.1304493 51.18638802 C54.07997019 53.14233464 56.02642518 55.10129631 57.97276306 57.06040955 C64.68622559 63.80185315 71.37046893 70.4539762 78.9375 76.25 C84.03066632 80.44519761 89.2526742 86.30909078 92.078125 92.27734375 C92.93975235 94.36171518 92.93975235 94.36171518 96 95 C97.54832618 97.16345576 98.91333999 99.27288004 100.25 101.5625 C100.64405029 102.23216797 101.03810059 102.90183594 101.4440918 103.59179688 C115.53161765 128.07203982 121.2138792 155.30466683 114 183 C109.74928326 197.53793388 102.82991771 211.46200244 93 223 C92.58503077 223.49349379 92.17006153 223.98698757 91.74251747 224.49543571 C82.74593727 235.18181866 73.15066954 245.1452442 63.26171875 255.00390625 C61.68491539 256.58206129 60.10840865 258.16051272 58.53218079 259.73924255 C55.25702506 263.01731985 51.97834849 266.29182117 48.69702148 269.5637207 C44.50653714 273.74274585 40.325188 277.93077879 36.14639568 282.12149143 C32.90456353 285.37056647 29.65796381 288.61484393 26.40992165 291.85770988 C24.86599083 293.40031436 23.3235226 294.94438422 21.7825985 296.48999214 C19.63031211 298.64739127 17.47166091 300.79822101 15.3112793 302.94750977 C14.37517822 303.88968353 14.37517822 303.88968353 13.42016602 304.85089111 C9.23170783 308.99985052 4.79908165 312.57800281 0 316 C0.55207916 304.5107471 2.46244047 293.31682912 4.37812614 281.98932838 C4.9763487 278.45149196 5.56745467 274.91252753 6.15687561 271.37321472 C7.41077311 263.8519134 8.67372119 256.33214629 9.9375 248.8125 C11.40008965 240.10565842 12.85882569 231.39819559 14.30990791 222.68942833 C14.88742358 219.23380752 15.47086312 215.77922348 16.05467224 212.32466125 C18.81213603 195.88299194 21.39709837 179.50702051 21.32226562 162.79296875 C21.3135616 159.87034977 21.32754477 156.94976838 21.36132812 154.02734375 C21.39762251 145.60801413 20.81384924 137.37244056 19.74169922 129.0222168 C19.60973994 127.9835827 19.47778067 126.9449486 19.34182262 125.87484074 C17.92935603 115.03814063 16.17024523 104.26451746 14.34928322 93.49007988 C13.75191244 89.95431001 13.16106637 86.41749896 12.57170105 82.88038635 C11.11120631 74.12241151 9.64079865 65.36610882 8.16925049 56.60998535 C6.91521379 49.14665342 5.66566828 41.68259862 4.42246056 34.21745491 C3.84194796 30.74294764 3.25480193 27.26960339 2.66743469 23.79624939 C2.31285788 21.67078287 1.95860727 19.54526189 1.60473633 17.41967773 C1.44113617 16.46331924 1.27753601 15.50696075 1.10897827 14.5216217 C0.29825607 9.60567666 -0.17541405 4.98239415 0 0 Z " fill="#DBAD56" transform="translate(83,68)"/>
<path d="M0 0 C8.43159539 -0.39557235 16.85926738 -0.69670349 25.29787254 -0.88080692 C29.21772162 -0.96922406 33.13119017 -1.08881717 37.04736328 -1.2824707 C62.20782143 -2.49385624 62.20782143 -2.49385624 68.31594849 1.52304077 C71.91105959 5.39362264 73.66837479 9.84134219 75.25427246 14.81918335 C76.32723815 17.95698009 77.98693045 20.62433244 79.73046875 23.43359375 C80.88355831 25.43446621 82.03589289 27.43577394 83.1875 29.4375 C84.4830528 31.68620951 85.77862632 33.93490708 87.07421875 36.18359375 C87.72438965 37.31265137 88.37456055 38.44170898 89.04443359 39.60498047 C92.80963304 46.14166755 96.58076735 52.6749326 100.35180664 59.20825195 C103.26081062 64.24887015 106.16810148 69.29044864 109.06854248 74.33599854 C110.09275665 76.11749578 111.11757651 77.89864322 112.14257812 79.6796875 C113.42633375 81.91076625 114.70895939 84.14249573 115.99023438 86.375 C116.86518555 87.89480469 116.86518555 87.89480469 117.7578125 89.4453125 C118.30598633 90.40211914 118.85416016 91.35892578 119.41894531 92.34472656 C120.85700808 94.75985482 122.40042676 97.0523971 123.9921875 99.3671875 C125.63186168 101.99134095 125.99635452 102.84202905 126.0703125 106.046875 C124.73725538 109.724945 122.93138675 112.94389773 120.875 116.25 C119.95815302 117.76603157 119.04289132 119.28302258 118.12890625 120.80078125 C117.37697998 122.04335693 117.37697998 122.04335693 116.60986328 123.31103516 C113.6134384 128.31598263 110.71947188 133.38025828 107.8125 138.4375 C106.51704947 140.68626842 105.22147492 142.93496541 103.92578125 145.18359375 C103.27561035 146.31265137 102.62543945 147.44170898 101.95556641 148.60498047 C98.19118307 155.14025072 94.42113136 161.67225359 90.65039062 168.20385742 C87.7306633 173.26233874 84.81345497 178.32221842 81.90567017 183.38757324 C80.53825234 185.76923502 79.16932961 188.1500302 77.80029297 190.53076172 C76.83935447 192.20326021 75.88058328 193.87700336 74.921875 195.55078125 C74.33535156 196.57042969 73.74882812 197.59007812 73.14453125 198.640625 C72.63253174 199.53297852 72.12053223 200.42533203 71.59301758 201.34472656 C71.06732178 202.2209668 70.54162598 203.09720703 70 204 C69.44146835 205.03071625 68.88293671 206.0614325 68.30747986 207.12338257 C66 210 66 210 63.0133667 210.7215271 C61.84976624 210.70820343 60.68616577 210.69487976 59.48730469 210.68115234 C58.84298492 210.6820285 58.19866516 210.68290466 57.53482056 210.68380737 C55.41258964 210.67963864 53.29355083 210.63303517 51.171875 210.5859375 C49.6978732 210.57474245 48.22384903 210.56620372 46.74981689 210.56021118 C42.8759971 210.53733603 39.00353392 210.47842752 35.13024902 210.4119873 C31.17556104 210.35053439 27.22065314 210.32318996 23.265625 210.29296875 C15.50979914 210.22868008 7.75508987 210.12632026 0 210 C0.9384665 208.27610308 1.87735154 206.552434 2.81640625 204.82885742 C3.33920166 203.86896408 3.86199707 202.90907074 4.40063477 201.92008972 C6.89652899 197.36313493 9.44282746 192.83528423 12 188.3125 C12.83748779 186.83100464 12.83748779 186.83100464 13.69189453 185.31958008 C18.27018067 177.24351394 22.93090184 169.21746432 27.62036133 161.20556641 C32.6412148 152.62674254 37.62613996 144.0276078 42.56982422 135.40405273 C45.46936409 130.35149918 48.39390081 125.32212405 51.42578125 120.34765625 C51.94760986 119.48116455 52.46943848 118.61467285 53.00708008 117.72192383 C53.97090455 116.12605747 54.94775326 114.53795164 55.94018555 112.9597168 C57.87105373 109.74061996 58.99054411 107.74134203 59.0390625 103.9375 C57.73582289 100.25315344 55.92842449 97.05133979 53.875 93.75 C52.95815302 92.23396843 52.04289132 90.71697742 51.12890625 89.19921875 C50.62762207 88.37083496 50.12633789 87.54245117 49.60986328 86.68896484 C46.6134384 81.68401737 43.71947188 76.61974172 40.8125 71.5625 C39.51704947 69.31373158 38.22147492 67.06503459 36.92578125 64.81640625 C36.27561035 63.68734863 35.62543945 62.55829102 34.95556641 61.39501953 C32.42622636 57.00388312 29.89388017 52.6144854 27.36108398 48.2253418 C26.12459977 46.08245934 24.88843218 43.93939415 23.65258789 41.79614258 C20.73255034 36.73246479 17.81023524 31.67014159 14.87988281 26.61242676 C13.50081969 24.23187827 12.12304215 21.85058694 10.74536133 19.46923828 C9.77615342 17.7951735 8.80509435 16.12218088 7.83398438 14.44921875 C7.24423828 13.42957031 6.65449219 12.40992188 6.046875 11.359375 C5.52963867 10.46702148 5.01240234 9.57466797 4.47949219 8.65527344 C2.89502637 5.81160178 1.44783016 2.91518571 0 0 Z " fill="#DCAE57" transform="translate(318,121)"/>
<path d="M0 0 C21.78 0 43.56 0 66 0 C64.51508007 3.71229983 63.03192692 6.90600693 61.09375 10.359375 C60.52019775 11.38345459 59.94664551 12.40753418 59.35571289 13.46264648 C58.74332764 14.54747314 58.13094238 15.6322998 57.5 16.75 C56.54951782 18.44008179 56.54951782 18.44008179 55.57983398 20.16430664 C51.74999436 26.95517743 47.86664399 33.70984746 43.8894043 40.4152832 C40.1469469 46.72725617 36.47681523 53.07989667 32.8125 59.4375 C31.8685437 61.07114502 31.8685437 61.07114502 30.90551758 62.73779297 C27.86811497 67.99924799 24.84305947 73.26644548 21.85722351 78.55729675 C20.48954422 80.97899043 19.11523918 83.39689144 17.74032593 85.81448364 C16.76540509 87.5353086 15.80022148 89.26163839 14.83520508 90.98803711 C14.24505615 92.02452393 13.65490723 93.06101074 13.046875 94.12890625 C12.52963867 95.04744385 12.01240234 95.96598145 11.47949219 96.91235352 C10 99 10 99 7 100 C6.44054687 98.9790625 5.88109375 97.958125 5.3046875 96.90625 C-0.82828561 85.76605027 -7.17585313 74.76039392 -13.60546875 63.7890625 C-14.42797119 62.37222168 -14.42797119 62.37222168 -15.26708984 60.92675781 C-16.4848653 58.87002462 -17.7386466 56.83439315 -19.01806641 54.81542969 C-19.6682373 53.77032227 -20.3184082 52.72521484 -20.98828125 51.6484375 C-21.58809814 50.70919434 -22.18791504 49.76995117 -22.8059082 48.80224609 C-24.30353601 45.28767402 -24.06728651 43.64094805 -23 40 C-21.63647461 37.15429688 -21.63647461 37.15429688 -19.90234375 34.21875 C-19.26490234 33.12820312 -18.62746094 32.03765625 -17.97070312 30.9140625 C-16.96426758 29.22410156 -16.96426758 29.22410156 -15.9375 27.5 C-14.63377525 25.28144937 -13.33039133 23.06269842 -12.02734375 20.84375 C-10.69832031 18.5853125 -9.36929687 16.326875 -8 14 C-5.36 9.38 -2.72 4.76 0 0 Z " fill="#DCAE57" transform="translate(438,121)"/>
<path d="M0 0 C2.79563775 2.49384792 4.43253404 5.25215081 6.265625 8.50390625 C6.90056885 9.62361816 7.5355127 10.74333008 8.18969727 11.89697266 C8.52494415 12.4934259 8.86019104 13.08987915 9.20559692 13.70440674 C10.62992079 16.23841553 12.06489886 18.76633761 13.4990387 21.2947998 C14.24053345 22.60249586 14.98144351 23.91052361 15.7217865 25.21887207 C19.30012792 31.54129454 22.92607147 37.83582244 26.5625 44.125 C27.79562182 46.25908633 29.02869461 48.39320099 30.26171875 50.52734375 C30.87321777 51.58550293 31.4847168 52.64366211 32.11474609 53.73388672 C34.06557806 57.11361088 36.01183506 60.4959356 37.95703125 63.87890625 C39.26286325 66.14852817 40.56885034 68.41806087 41.875 70.6875 C42.49842285 71.77111816 43.1218457 72.85473633 43.76416016 73.97119141 C47.61006225 80.63954746 51.50466774 87.27403384 55.56396484 93.81518555 C58 97.78854186 58 97.78854186 58 100 C36.22 100 14.44 100 -8 100 C-32 58 -32 58 -31 53 C-30.19067383 51.16088867 -30.19067383 51.16088867 -29.20703125 49.41796875 C-28.83094727 48.74507813 -28.45486328 48.0721875 -28.06738281 47.37890625 C-27.65327148 46.65574219 -27.23916016 45.93257813 -26.8125 45.1875 C-26.37905273 44.41921875 -25.94560547 43.6509375 -25.49902344 42.859375 C-2.78972126 2.78972126 -2.78972126 2.78972126 0 0 Z " fill="#DCAE57" transform="translate(446,231)"/>
<path d="M0 0 C8.38856185 -0.06957382 16.77700273 -0.12284852 25.16578197 -0.15543652 C29.06122736 -0.17107878 32.95647503 -0.19229041 36.85180664 -0.22631836 C40.61248525 -0.25896368 44.37297394 -0.27686385 48.13378334 -0.28463173 C49.56709087 -0.290166 51.00038826 -0.30097321 52.43361473 -0.31719017 C54.44416503 -0.33903055 56.45490728 -0.34022597 58.46557617 -0.34057617 C59.60919113 -0.34723801 60.75280609 -0.35389984 61.93107605 -0.36076355 C65.41834936 0.04917854 67.24098813 0.84826057 70 3 C72.19902669 6.11867478 72.25716103 8.85270418 72.2746582 12.60717773 C72.28419022 13.73192001 72.29372223 14.85666229 72.30354309 16.01548767 C72.30263168 17.22596268 72.30172028 18.43643768 72.30078125 19.68359375 C72.30506638 20.93125015 72.3093515 22.17890656 72.31376648 23.46437073 C72.31950995 26.1030994 72.32094518 28.74143692 72.31567383 31.38012695 C72.30988072 34.75395143 72.32681052 38.12722665 72.3500185 41.50096035 C72.36833208 44.72850058 72.36456985 47.95601093 72.36328125 51.18359375 C72.372491 52.39204453 72.38170074 53.6004953 72.39118958 54.8455658 C72.38496078 55.97346024 72.37873199 57.10135468 72.37231445 58.26342773 C72.37294388 59.25285873 72.3735733 60.24228973 72.3742218 61.26170349 C71.92956642 64.51538429 70.9351582 66.36456744 69 69 C65.53322756 71.31118163 64.23668119 71.24417896 60.15161133 71.22705078 C58.35008354 71.22682419 58.35008354 71.22682419 56.51216125 71.22659302 C55.21521835 71.21627045 53.91827545 71.20594788 52.58203125 71.1953125 C51.24110627 71.19158155 49.90017856 71.18873497 48.55924988 71.18673706 C45.03285167 71.17910699 41.50661866 71.15946403 37.98028564 71.1373291 C34.38076004 71.1168571 30.78120769 71.10773245 27.18164062 71.09765625 C20.12102624 71.07621745 13.06052391 71.04208913 6 71 C7.21781984 68.44916116 8.45084327 66.37677548 10.125 64.0625 C13.14290911 58.79817734 12.75223878 52.85878283 12 47 C10.92949849 44.07457777 9.57736259 41.71109195 8 39 C8 35.13067294 8.15237064 34.30671181 9.9375 31.1875 C12.98396658 25.32223871 13.56251067 20.24587011 11.7265625 13.91796875 C9.7138259 8.60477696 6.49385284 5.31125999 2 2 C1.34 1.34 0.68 0.68 0 0 Z " fill="#DBAD56" transform="translate(385,413)"/>
<path d="M0 0 C5.56220128 4.35674127 8.87012095 10.77068448 12.5625 16.6875 C18.49131138 26.1294925 18.49131138 26.1294925 24.6796875 35.40234375 C25.23325928 36.20776611 25.78683105 37.01318848 26.35717773 37.84301758 C27.3801367 39.32016843 28.41291802 40.79058522 29.45727539 42.25268555 C32.35277262 46.45200018 34.00619922 49.73066578 34 55 C32.00143968 59.20874269 29.64454299 61.26182756 25.7734375 63.77734375 C24.74089844 64.45603516 23.70835937 65.13472656 22.64453125 65.83398438 C21.56558594 66.52814453 20.48664063 67.22230469 19.375 67.9375 C17.79138672 68.97293945 17.79138672 68.97293945 16.17578125 70.02929688 C14.09940709 71.38653029 12.01972402 72.73871705 9.93652344 74.08544922 C6.49721858 76.32780278 3.10641211 78.63659646 -0.27099609 80.97094727 C-2 82 -2 82 -4 82 C-4.0093457 81.09233887 -4.01869141 80.18467773 -4.02832031 79.24951172 C-4.07250484 75.86073186 -4.13419111 72.47318774 -4.20751953 69.08496094 C-4.2356311 67.62251295 -4.25689431 66.1599158 -4.27099609 64.69726562 C-4.29256419 62.58646831 -4.33927656 60.47744571 -4.390625 58.3671875 C-4.4220459 56.46622314 -4.4220459 56.46622314 -4.45410156 54.52685547 C-5.08922337 50.42355957 -6.42026315 48.21652262 -9 45 C-11.66660057 43.66669971 -13.74888743 43.83840541 -16.73486328 43.79467773 C-17.93595734 43.77473251 -19.13705139 43.75478729 -20.37454224 43.73423767 C-21.67664642 43.71752518 -22.97875061 43.70081268 -24.3203125 43.68359375 C-25.66267538 43.66302375 -27.00503179 43.64202727 -28.34738159 43.62062073 C-31.88188438 43.56540469 -35.41644557 43.51599342 -38.9510498 43.46777344 C-42.55726322 43.41755496 -46.16339172 43.36187071 -49.76953125 43.30664062 C-56.84628049 43.19906483 -63.92310584 43.09761858 -71 43 C-69.59046047 38.7713814 -66.53286837 37.60704969 -62.875 35.4375 C-61.38559085 34.5304954 -59.89733126 33.6216007 -58.41015625 32.7109375 C-57.66008301 32.25299805 -56.91000977 31.79505859 -56.13720703 31.32324219 C-53.146009 29.47125529 -50.23151861 27.52689269 -47.3125 25.5625 C-40.14207325 20.73951623 -32.92277395 15.99214612 -25.69589233 11.25436401 C-24.35951572 10.37812771 -23.02343452 9.5014407 -21.68765259 8.6242981 C-19.79640868 7.38252297 -17.90420902 6.14221833 -16.01171875 4.90234375 C-15.43529633 4.52363129 -14.8588739 4.14491882 -14.26498413 3.75473022 C-9.62281443 0.71791573 -5.67908993 -1.37116766 0 0 Z " fill="#707175" transform="translate(465,367)"/>
<path d="M0 0 C1.11521027 -0.0159874 2.23042053 -0.03197479 3.37942505 -0.04844666 C4.59081146 -0.05380936 5.80219788 -0.05917206 7.05029297 -0.06469727 C8.91534988 -0.07823997 8.91534988 -0.07823997 10.81808472 -0.09205627 C13.45618135 -0.10659264 16.09384409 -0.1162485 18.73193359 -0.11914062 C21.42862406 -0.12343872 24.12435533 -0.14421122 26.82080078 -0.18066406 C30.71009398 -0.22957849 34.59822359 -0.24493762 38.48779297 -0.25219727 C39.687034 -0.27172958 40.88627502 -0.2912619 42.12185669 -0.31138611 C49.20923065 -0.27340511 54.29050255 0.44713558 59.66748047 5.30639648 C64.51398417 10.86718622 66.02926232 15.57071547 65.95654297 22.92749023 C65.29299191 28.3883361 62.13638948 33.14370567 58.66748047 37.30639648 C59.84310547 38.60577148 59.84310547 38.60577148 61.04248047 39.93139648 C64.84241409 44.53868144 66.16454138 49.13665932 65.97998047 55.15795898 C65.17816007 60.67047424 62.90811415 65.5844664 58.66748047 69.24389648 C54.1200402 72.37026167 51.46686203 73.55769814 45.88916016 73.53344727 C44.14780792 73.53322067 44.14780792 73.53322067 42.37127686 73.5329895 C41.1232428 73.52266693 39.87520874 73.51234436 38.58935547 73.50170898 C36.66678925 73.49746414 36.66678925 73.49746414 34.7053833 73.49313354 C31.30558408 73.48551436 27.90595701 73.46588083 24.50622559 73.44372559 C21.03395923 73.42323006 17.56166494 73.41412392 14.08935547 73.40405273 C7.2819933 73.38263315 0.47474516 73.34851805 -6.33251953 73.30639648 C-7.99829579 69.97484398 -7.45259809 66.2410359 -7.43017578 62.57983398 C-7.42876083 61.71701813 -7.42734589 60.85420227 -7.42588806 59.96524048 C-7.42028141 57.20392418 -7.4077278 54.44268836 -7.39501953 51.68139648 C-7.39000539 49.81160599 -7.38544233 47.94181422 -7.38134766 46.07202148 C-7.37030982 41.48344871 -7.35304073 36.89493625 -7.33251953 32.30639648 C-6.31560783 32.29759712 -6.31560783 32.29759712 -5.27815247 32.28862 C1.77862581 32.2246807 8.83494828 32.14025903 15.89135742 32.04394531 C18.52475983 32.01069323 21.15823355 31.98266224 23.79174805 31.95996094 C27.57745758 31.92642119 31.36251336 31.87410328 35.14794922 31.81811523 C36.91382637 31.80853035 36.91382637 31.80853035 38.71537781 31.79875183 C39.81614151 31.77895767 40.91690521 31.75916351 42.05102539 31.73876953 C43.49997444 31.72211494 43.49997444 31.72211494 44.97819519 31.7051239 C49.17014571 31.08360352 51.81273192 29.30360313 54.54248047 26.11889648 C56.44865175 21.35346827 55.27296202 17.12284114 53.66748047 12.30639648 C50.1695905 10.46851641 47.19615594 10.05025939 43.28222656 10.01928711 C42.23118744 10.0058728 41.18014832 9.9924585 40.09725952 9.9786377 C38.97316681 9.9733606 37.8490741 9.9680835 36.69091797 9.96264648 C35.52871735 9.94802368 34.36651672 9.93340088 33.1690979 9.91833496 C28.20057001 9.85608912 23.23191937 9.81638531 18.26318359 9.7746582 C14.63479427 9.74099176 11.00667205 9.69587244 7.37841797 9.65014648 C5.68620621 9.64223083 5.68620621 9.64223083 3.95980835 9.63415527 C2.91507355 9.62074097 1.87033875 9.60732666 0.79394531 9.59350586 C-0.12585114 9.5862146 -1.04564758 9.57892334 -1.99331665 9.57141113 C-4.33251953 9.30639648 -4.33251953 9.30639648 -7.33251953 7.30639648 C-7.64501953 4.80639648 -7.64501953 4.80639648 -7.33251953 2.30639648 C-4.73121371 -0.29490934 -3.6242102 0.03918677 0 0 Z M1.66748047 41.30639648 C1.66748047 48.89639648 1.66748047 56.48639648 1.66748047 64.30639648 C8.26984214 64.37530401 14.87095379 64.43502821 21.47338867 64.47119141 C23.71887441 64.48626831 25.96433076 64.50673301 28.2097168 64.53271484 C31.43920146 64.56914566 34.6682964 64.58613403 37.89794922 64.59936523 C39.40134102 64.62259102 39.40134102 64.62259102 40.93510437 64.64628601 C47.80895875 64.68058051 47.80895875 64.68058051 53.66748047 61.30639648 C56.0123194 57.86729939 56.67828827 55.92244139 56.60498047 51.74389648 C55.41640736 47.3857951 53.73330382 44.56367138 49.82305908 42.18386841 C47.37781185 41.18848101 45.62456043 41.06487407 42.99072266 41.0793457 C42.07007019 41.07949677 41.14941772 41.07964783 40.2008667 41.07980347 C39.21531799 41.09012604 38.22976929 41.10044861 37.21435547 41.11108398 C36.19899719 41.11391388 35.18363892 41.11674377 34.13751221 41.11965942 C30.8973813 41.13084647 27.65752771 41.15594857 24.41748047 41.18139648 C22.2195678 41.19142818 20.02165079 41.2005537 17.82373047 41.20874023 C12.43812124 41.22907864 7.05311095 41.2682306 1.66748047 41.30639648 Z " fill="#707175" transform="translate(329.33251953125,412.693603515625)"/>
<path d="M0 0 C0.94875 0.04125 1.8975 0.0825 2.875 0.125 C4.13393663 2.64287326 4.01317359 4.39574509 4.03271484 7.21386719 C4.04297699 8.27547058 4.05323914 9.33707397 4.06381226 10.43084717 C4.07111359 11.58288635 4.07841492 12.73492554 4.0859375 13.921875 C4.11401034 16.34896503 4.14267483 18.77604827 4.171875 21.203125 C4.21312162 25.03906027 4.2499991 28.87486947 4.27636719 32.7109375 C4.3039888 36.40651819 4.34986809 40.10151817 4.3984375 43.796875 C4.40169037 44.94081726 4.40494324 46.08475952 4.40829468 47.2633667 C4.51818537 55.11466875 4.51818537 55.11466875 7.875 62.125 C10.16888247 63.27194123 11.5252189 63.27497077 14.07763672 63.31787109 C14.94548798 63.33393402 15.81333923 63.34999695 16.70748901 63.36654663 C20.67331175 63.41096697 24.63896729 63.4520503 28.60498047 63.47509766 C30.69819241 63.49167176 32.79134742 63.51898078 34.88427734 63.55712891 C37.89971315 63.61181667 40.913823 63.63375786 43.9296875 63.6484375 C45.33297806 63.68244156 45.33297806 63.68244156 46.76461792 63.71713257 C52.10598283 63.75396781 52.10598283 63.75396781 56.43408203 60.84228516 C58.59600586 56.76532611 59.00261335 53.41032811 59.06445312 48.8215332 C59.08117065 47.76396317 59.09788818 46.70639313 59.1151123 45.61677551 C59.12868774 44.48124741 59.14226318 43.3457193 59.15625 42.17578125 C59.17465942 41.00742233 59.19306885 39.83906342 59.21203613 38.63529968 C59.29078836 33.63187887 59.3586821 28.62832509 59.42724609 23.62475586 C59.4788073 19.97502643 59.53610232 16.32541878 59.59375 12.67578125 C59.60732544 11.53418045 59.62090088 10.39257965 59.6348877 9.21638489 C59.65160522 8.16827133 59.66832275 7.12015778 59.68554688 6.0402832 C59.70433899 4.64940239 59.70433899 4.64940239 59.72351074 3.23042297 C59.875 1.125 59.875 1.125 60.875 0.125 C63.8125 -0.125 63.8125 -0.125 66.875 0.125 C69.04511886 3.38017829 69.13009329 4.31395952 69.1496582 8.08032227 C69.15919022 9.08889786 69.16872223 10.09747345 69.17854309 11.13661194 C69.17763168 12.22719406 69.17672028 13.31777618 69.17578125 14.44140625 C69.18006638 15.56763901 69.1843515 16.69387177 69.18876648 17.85423279 C69.19451561 20.24241463 69.19500577 22.63061399 69.19067383 25.01879883 C69.18753338 28.64891105 69.21089855 32.27819287 69.23632812 35.90820312 C69.23860319 38.23176981 69.23930365 40.55533868 69.23828125 42.87890625 C69.247491 43.95531876 69.25670074 45.03173126 69.26618958 46.14076233 C69.21849597 54.032339 68.3147308 61.30275508 64 68.0625 C58.25954508 73.63411801 53.34589004 73.58010113 45.66015625 73.55859375 C44.57165878 73.5638356 43.48316132 73.56907745 42.36167908 73.57447815 C40.06282401 73.58089318 37.7639361 73.57956811 35.46508789 73.57104492 C31.95334235 73.56253838 28.44322542 73.59130012 24.93164062 73.62304688 C22.69531299 73.62465912 20.45898247 73.62408091 18.22265625 73.62109375 C17.17562027 73.63232773 16.12858429 73.64356171 15.04981995 73.65513611 C8.99923632 73.59747908 5.4943541 73.13984254 0.875 69.125 C-0.76953125 67.34375 -0.76953125 67.34375 -1.9375 65.625 C-2.53498047 64.77421875 -2.53498047 64.77421875 -3.14453125 63.90625 C-5.16213339 60.24080548 -5.2542169 56.68723967 -5.27026367 52.56201172 C-5.27664352 51.44760712 -5.28302338 50.33320251 -5.28959656 49.18502808 C-5.29070938 47.98701569 -5.2918222 46.7890033 -5.29296875 45.5546875 C-5.29629715 44.32211212 -5.29962555 43.08953674 -5.30305481 41.8196106 C-5.30811608 39.21551893 -5.31046338 36.61142079 -5.31030273 34.00732422 C-5.31022109 31.33212581 -5.31722236 28.65709722 -5.33081055 25.98193359 C-5.34904396 22.13113123 -5.35403494 18.28052859 -5.35546875 14.4296875 C-5.36265427 13.22762665 -5.36983978 12.0255658 -5.37724304 10.78707886 C-5.37416641 9.67897858 -5.37108978 8.5708783 -5.36791992 7.42919922 C-5.36934494 6.45087128 -5.37076996 5.47254333 -5.37223816 4.46456909 C-4.96651336 0.62527012 -3.73928235 0.14957129 0 0 Z " fill="#707175" transform="translate(244.125,412.875)"/>
<path d="M0 0 C4.69891702 3.24573342 7.92383356 6.70649128 10.796875 11.64453125 C11.234375 14.45703125 11.234375 14.45703125 10.796875 16.64453125 C8.796875 18.64453125 8.796875 18.64453125 6.4375 19.06640625 C2.73467497 18.47483065 1.82314581 16.81153014 -0.453125 13.89453125 C-5.64620293 7.87431283 -9.60688143 5.20018041 -17.53125 4.2421875 C-26.39782725 3.84875712 -33.3759634 5.23756843 -40.04296875 11.32421875 C-45.3247329 17.1354507 -47.85396738 23.10548225 -48.453125 30.89453125 C-47.93947163 38.59933181 -45.27482733 46.07751471 -39.34375 51.2734375 C-31.28298584 57.56143961 -24.40171711 58.7022455 -14.203125 57.64453125 C-6.73164654 55.47376386 -1.61370673 50.94715231 2.796875 44.64453125 C3.291875 43.55978516 3.291875 43.55978516 3.796875 42.453125 C4.796875 40.64453125 4.796875 40.64453125 7.796875 39.76953125 C9.281875 39.70765625 9.281875 39.70765625 10.796875 39.64453125 C12.796875 41.64453125 12.796875 41.64453125 13.12890625 44.4296875 C12.51773004 50.34731129 8.73147303 54.38256478 4.796875 58.64453125 C-6.19820826 67.35995691 -16.61701974 68.82304689 -30.203125 67.64453125 C-39.43860028 65.88031866 -46.57327182 59.49683499 -52.09375 52.1171875 C-57.89643479 42.97655054 -59.64945095 33.76340297 -57.73828125 23.03515625 C-54.96329641 12.46065779 -48.43575272 3.97095765 -39.0546875 -1.640625 C-26.74949542 -8.02194208 -11.69006049 -7.19228899 0 0 Z " fill="#707175" transform="translate(140.203125,418.35546875)"/>
<path d="M0 0 C3.0625 0.1875 3.0625 0.1875 5.0625 2.1875 C5.30300903 4.7817688 5.30300903 4.7817688 5.28955078 8.10595703 C5.28932419 9.96766037 5.28932419 9.96766037 5.28909302 11.86697388 C5.278879 13.2264217 5.268447 14.5858679 5.2578125 15.9453125 C5.25408284 17.33250729 5.25123565 18.71970471 5.24923706 20.10690308 C5.24159684 23.75990051 5.22194516 27.41273917 5.1998291 31.06567383 C5.17937896 34.79245862 5.17023713 38.51926904 5.16015625 42.24609375 C5.13869951 49.55996825 5.10455903 56.87371189 5.0625 64.1875 C11.66492799 64.14583595 18.26651267 64.07351496 24.8684082 63.97998047 C27.11377344 63.95177358 29.35923791 63.93055768 31.60473633 63.91650391 C34.83466389 63.89507108 38.06339856 63.84841729 41.29296875 63.796875 C42.29522995 63.79564636 43.29749115 63.79441772 44.3301239 63.79315186 C48.72005847 63.70112156 51.3478709 63.6208491 55.16137695 61.30834961 C57.88654833 58.26821044 58.7040758 55.17694101 59.875 51.33203125 C61.0625 49.1875 61.0625 49.1875 63.5 48.19921875 C66.0625 48.1875 66.0625 48.1875 67.87109375 49.3671875 C69.76571089 52.26191401 69.26500497 54.38967155 68.76171875 57.70703125 C67.14076551 63.45734023 64.01299834 67.70818464 59.28930664 71.29077148 C53.75613056 74.35508837 47.62127939 73.67931821 41.47265625 73.578125 C40.17299423 73.57246521 38.87333221 73.56680542 37.5342865 73.56097412 C34.09976737 73.54579203 30.66593827 73.50657694 27.23168945 73.4621582 C23.71900768 73.42104326 20.20621305 73.40292874 16.69335938 73.3828125 C9.81612502 73.34007341 2.93934575 73.27191429 -3.9375 73.1875 C-3.96062504 63.81714062 -3.97841591 54.44679099 -3.98931217 45.07640934 C-3.99454065 40.72581541 -4.00163765 36.37524093 -4.01293945 32.0246582 C-4.02376959 27.82959742 -4.0297771 23.63455541 -4.03237724 19.43948174 C-4.03423126 17.83543032 -4.03785144 16.23137997 -4.04323006 14.6273365 C-4.05044219 12.38833485 -4.05149087 10.1494117 -4.05102539 7.91040039 C-4.053246 6.63354874 -4.05546661 5.35669708 -4.05775452 4.04115295 C-3.89411125 0.15788029 -3.8881631 0.24818062 0 0 Z " fill="#707175" transform="translate(164.9375,412.8125)"/>
</svg>
